<svg width="24" height="24" viewBox="0 0 24 24" fill="none" xmlns="http://www.w3.org/2000/svg">
<path d="M2.99988 3C2.44759 3 1.99988 3.44772 1.99988 4C1.99988 4.55228 2.44759 5 2.99988 5V3ZM4.99988 4L5.99577 3.90946C5.94895 3.39439 5.51708 3 4.99988 3V4ZM20.9999 7L21.9898 7.14142C22.0308 6.85444 21.9453 6.5638 21.7553 6.3448C21.5654 6.1258 21.2898 6 20.9999 6V7ZM5.27261 7L4.27671 7.09054L5.27261 7ZM7.95656 14.8602L7.88531 13.8628L7.95656 14.8602ZM2.99988 5H4.99988V3H2.99988V5ZM8.0278 15.8577L18.4619 15.1124L18.3194 13.1175L7.88531 13.8628L8.0278 15.8577ZM21.218 12.5443L21.9898 7.14142L20.0099 6.85858L19.2381 12.2614L21.218 12.5443ZM4.00398 4.09054L4.27671 7.09054L6.2685 6.90946L5.99577 3.90946L4.00398 4.09054ZM4.27671 7.09054L4.82638 13.1369L6.81817 12.9559L6.2685 6.90946L4.27671 7.09054ZM20.9999 6H5.27261V8H20.9999V6ZM18.4619 15.1124C19.8705 15.0118 21.0183 13.9423 21.218 12.5443L19.2381 12.2614C19.1715 12.7275 18.7889 13.0839 18.3194 13.1175L18.4619 15.1124ZM7.88531 13.8628C7.34195 13.9016 6.86749 13.4984 6.81817 12.9559L4.82638 13.1369C4.97434 14.7644 6.39773 15.9741 8.0278 15.8577L7.88531 13.8628Z" fill="#828282"/>
<path d="M8.99988 20C9.55216 20 9.99988 19.5523 9.99988 19C9.99988 18.4477 9.55216 18 8.99988 18C8.44759 18 7.99988 18.4477 7.99988 19C7.99988 19.5523 8.44759 20 8.99988 20Z" stroke="#828282" stroke-width="2" stroke-linecap="round" stroke-linejoin="round"/>
<path d="M16.9999 20C17.5522 20 17.9999 19.5523 17.9999 19C17.9999 18.4477 17.5522 18 16.9999 18C16.4476 18 15.9999 18.4477 15.9999 19C15.9999 19.5523 16.4476 20 16.9999 20Z" stroke="#828282" stroke-width="2" stroke-linecap="round" stroke-linejoin="round"/>
</svg>
