<svg width="25" height="24" viewBox="0 0 25 24" fill="none" xmlns="http://www.w3.org/2000/svg">
<path d="M17.3334 2H7.33337C4.57195 2 2.33337 4.23858 2.33337 7V17C2.33337 19.7614 4.57195 22 7.33337 22H17.3334C20.0948 22 22.3334 19.7614 22.3334 17V7C22.3334 4.23858 20.0948 2 17.3334 2Z" stroke="#00FF00" stroke-width="2" stroke-linecap="round" stroke-linejoin="round"/>
<path d="M16.3334 11.3701C16.4568 12.2023 16.3146 13.0523 15.9271 13.7991C15.5396 14.5459 14.9265 15.1515 14.175 15.5297C13.4235 15.908 12.5718 16.0397 11.7412 15.906C10.9105 15.7723 10.1431 15.3801 9.54823 14.7852C8.9533 14.1903 8.56112 13.4229 8.42745 12.5923C8.29379 11.7616 8.42545 10.91 8.80371 10.1584C9.18197 9.40691 9.78757 8.7938 10.5344 8.4063C11.2812 8.0188 12.1311 7.87665 12.9634 8.00006C13.8123 8.12594 14.5982 8.52152 15.2051 9.12836C15.8119 9.73521 16.2075 10.5211 16.3334 11.3701Z" stroke="#00FF00" stroke-width="2" stroke-linecap="round" stroke-linejoin="round"/>
<path d="M18.328 6.42666C18.3434 6.53069 18.3256 6.63694 18.2772 6.73028C18.2287 6.82363 18.1521 6.89933 18.0582 6.94662C17.9642 6.9939 17.8578 7.01036 17.7539 6.99365C17.6501 6.97694 17.5542 6.92792 17.4798 6.85355C17.4055 6.77919 17.3564 6.68327 17.3397 6.57943C17.323 6.4756 17.3395 6.36915 17.3868 6.27521C17.434 6.18127 17.5097 6.10463 17.6031 6.05619C17.6964 6.00775 17.8027 5.98998 17.9067 6.00541C18.0128 6.02114 18.1111 6.07059 18.1869 6.14645C18.2628 6.2223 18.3122 6.32054 18.328 6.42666Z" stroke="#00FF00" stroke-width="2" stroke-linecap="round" stroke-linejoin="round"/>
</svg>
