<svg width="25" height="24" viewBox="0 0 25 24" fill="none" xmlns="http://www.w3.org/2000/svg">
<path d="M12.5 21C17.4706 21 21.5 16.9706 21.5 12C21.5 7.02944 17.4706 3 12.5 3C7.52944 3 3.5 7.02944 3.5 12C3.5 16.9706 7.52944 21 12.5 21Z" fill="#F7F7F7"/>
<path d="M12.7929 15.7071C13.1834 16.0976 13.8166 16.0976 14.2071 15.7071C14.5976 15.3166 14.5976 14.6834 14.2071 14.2929L12.7929 15.7071ZM10.5 12L9.79289 11.2929C9.40237 11.6834 9.40237 12.3166 9.79289 12.7071L10.5 12ZM14.2071 9.70711C14.5976 9.31658 14.5976 8.68342 14.2071 8.29289C13.8166 7.90237 13.1834 7.90237 12.7929 8.29289L14.2071 9.70711ZM14.2071 14.2929L11.2071 11.2929L9.79289 12.7071L12.7929 15.7071L14.2071 14.2929ZM11.2071 12.7071L14.2071 9.70711L12.7929 8.29289L9.79289 11.2929L11.2071 12.7071Z" fill="#141616"/>
</svg>
