<svg width="25" height="24" viewBox="0 0 25 24" fill="none" xmlns="http://www.w3.org/2000/svg">
<path d="M12.5 21C17.4706 21 21.5 16.9706 21.5 12C21.5 7.02944 17.4706 3 12.5 3C7.52944 3 3.5 7.02944 3.5 12C3.5 16.9706 7.52944 21 12.5 21Z" fill="#F7F7F7"/>
<path d="M12.2071 8.29289C11.8166 7.90237 11.1834 7.90237 10.7929 8.29289C10.4024 8.68342 10.4024 9.31658 10.7929 9.70711L12.2071 8.29289ZM14.5 12L15.2071 12.7071C15.3946 12.5196 15.5 12.2652 15.5 12C15.5 11.7348 15.3946 11.4804 15.2071 11.2929L14.5 12ZM10.7929 14.2929C10.4024 14.6834 10.4024 15.3166 10.7929 15.7071C11.1834 16.0976 11.8166 16.0976 12.2071 15.7071L10.7929 14.2929ZM10.7929 9.70711L13.7929 12.7071L15.2071 11.2929L12.2071 8.29289L10.7929 9.70711ZM13.7929 11.2929L10.7929 14.2929L12.2071 15.7071L15.2071 12.7071L13.7929 11.2929Z" fill="#141616"/>
</svg>
